<svg width="4" height="16" viewBox="0 0 4 16" fill="none" xmlns="http://www.w3.org/2000/svg">
<path d="M1.89062 12.5C2.72062 12.5 3.39062 13.17 3.39062 14C3.39062 14.83 2.72062 15.5 1.89062 15.5C1.06063 15.5 0.390625 14.83 0.390625 14C0.390625 13.17 1.06063 12.5 1.89062 12.5ZM0.390625 8C0.390625 8.83 1.06063 9.5 1.89062 9.5C2.72062 9.5 3.39062 8.83 3.39062 8C3.39062 7.17 2.72062 6.5 1.89062 6.5C1.06063 6.5 0.390625 7.17 0.390625 8ZM0.390625 2C0.390625 2.83 1.06063 3.5 1.89062 3.5C2.72062 3.5 3.39062 2.83 3.39062 2C3.39062 1.17 2.72062 0.5 1.89062 0.5C1.06063 0.5 0.390625 1.17 0.390625 2Z" fill="#030303"/>
</svg>
